# xmcd CD database file
#
# Track frame offsets:
#	150
#	20801
#	44658
#	64128
#	87798
#	107248
#	134166
#	156018
#	176626
#	200383
#	227703
#	253857
#
# Disc length: 3670 seconds
#
# Revision: 2
# Processed by: cddbd v1.4b41PL1 Copyright (c) Steve Scherf et al.
# Submitted via: Feurio! 1.60 - http://www.feurio.com
#
DISCID=af0e540c,b50e540c
DTITLE=Creed - Human Clay
DYEAR=1900
DGENRE=
TTITLE0=Are You Ready?
TTITLE1=What If
TTITLE2=Beautiful
TTITLE3=Say I
TTITLE4=Wrong Way
TTITLE5=Faceless Man
TTITLE6=Never Die
TTITLE7=With Arms Wide Open
TTITLE8=Higher
TTITLE9=Wash Away Those Years
TTITLE10=Inside Us All
TTITLE11=Young Grow Old
EXTD=
EXTT0=
EXTT1=
EXTT2=
EXTT3=
EXTT4=
EXTT5=
EXTT6=
EXTT7=
EXTT8=
EXTT9=
EXTT10=
EXTT11=
PLAYORDER=
